<svg width="80" height="80" viewBox="0 0 80 80" fill="none" xmlns="http://www.w3.org/2000/svg">
<g id="knife_fork_gear">
<path id="fork" d="M42.7394 0.759766C41.8546 0.62585 40.8353 0.537429 39.8166 0.509766C38.8027 0.482236 37.731 0.5132 36.7531 0.638672C35.8591 0.753394 34.7193 0.982983 33.8068 1.5498C32.7777 2.1892 32.175 3.16915 31.8087 3.92676C31.4258 4.71889 31.1523 5.5902 30.9406 6.33398C30.6877 7.22245 30.5779 7.70489 30.3751 8.38477C30.2901 8.66995 30.2153 8.89225 30.1476 9.0625C30.1084 9.16095 30.0787 9.22236 30.0617 9.25586C30.0291 9.28214 29.8726 9.42682 29.4826 9.66016C29.0071 9.9446 28.3836 10.2437 27.6974 10.5215C27.0177 10.7966 26.328 11.0302 25.7404 11.1943C25.447 11.2763 25.1943 11.3364 24.9933 11.376C24.9276 11.3889 24.8705 11.3966 24.8224 11.4043C24.7063 11.3626 24.5381 11.2948 24.3097 11.1855C23.7595 10.9223 23.1471 10.5765 22.381 10.1621C21.6796 9.78273 20.84 9.34141 20.0441 9.03906C19.6423 8.88644 19.1671 8.73599 18.6652 8.66113C18.1832 8.58925 17.4799 8.55603 16.7433 8.83398C16.0723 9.08724 15.284 9.5743 14.5939 10.0488C13.8483 10.5615 13.0195 11.1993 12.2287 11.8848C11.444 12.5649 10.6489 13.3326 10.0001 14.1104C9.45479 14.7641 8.78049 15.6921 8.5021 16.7451L8.45229 16.957C8.23987 17.974 8.38042 19.0231 8.55483 19.8369C8.74002 20.7009 9.02942 21.5843 9.32143 22.3779C9.61583 23.178 9.93735 23.9519 10.2013 24.584C10.4436 25.1642 10.6095 25.5656 10.7082 25.835C10.7055 25.8968 10.6973 26.0392 10.6515 26.2832C10.5654 26.7418 10.3953 27.3247 10.1623 27.9531C9.93189 28.5742 9.66148 29.1814 9.40346 29.6787C9.27497 29.9264 9.15732 30.1316 9.05776 30.2891C9.02328 30.3436 8.99063 30.3856 8.96694 30.4199C8.84409 30.4853 8.65716 30.5722 8.38979 30.6797C7.79696 30.9179 7.09879 31.1496 6.25405 31.4463C5.47501 31.7199 4.56709 32.0514 3.79507 32.4375C3.40616 32.632 2.9737 32.8777 2.57925 33.1885C2.20538 33.4831 1.69701 33.9664 1.38784 34.6846C1.09939 35.3548 0.911528 36.2542 0.786276 37.0635C0.650861 37.9385 0.552628 38.9511 0.515768 39.9678C0.479184 40.9772 0.501263 42.0529 0.627097 43.0361C0.741295 43.9282 0.980916 45.1051 1.61733 46.04C2.22574 46.9338 3.10127 47.5343 3.81362 47.9385C4.56102 48.3625 5.38583 48.7101 6.11928 48.9961C6.49223 49.1415 6.86465 49.2802 7.20717 49.4072L7.21086 49.4086C7.55922 49.5378 7.87292 49.6541 8.16421 49.7676C8.79832 50.0146 9.115 50.1701 9.2394 50.2529C9.19976 50.2265 9.35307 50.335 9.63393 50.7656C9.88706 51.1538 10.1502 51.6595 10.3908 52.2207C10.6295 52.7779 10.8245 53.3405 10.9562 53.8232C11.0217 54.0635 11.0671 54.2675 11.0949 54.4287C11.1075 54.5017 11.1119 54.5581 11.1164 54.5977C11.1126 54.6112 11.1099 54.6271 11.1046 54.6445C11.0585 54.7979 10.9788 55.0148 10.8576 55.3057C10.6065 55.9082 10.2873 56.5721 9.91616 57.3818C9.57212 58.1325 9.18695 59.0024 8.92592 59.8145C8.79451 60.2233 8.67119 60.6886 8.61049 61.167C8.55322 61.6187 8.52558 62.2755 8.75503 62.9639C9.00327 63.7085 9.53422 64.5578 10.0167 65.2539C10.5512 66.0249 11.2199 66.8796 11.9328 67.6943C12.6416 68.5044 13.4341 69.3201 14.2218 69.9873C14.9263 70.584 15.9239 71.3246 17.0197 71.5986C18.2816 71.9141 19.5439 71.5557 20.3449 71.2715C21.2463 70.9516 22.1741 70.4914 22.9669 70.0791C23.8311 69.6297 24.4882 69.2641 25.1105 68.9639C25.3832 68.8323 25.5849 68.7472 25.7267 68.6953C25.8374 68.7193 26.0354 68.7692 26.3341 68.8701C26.8187 69.0337 27.3973 69.2737 27.9894 69.5557C28.5788 69.8364 29.143 70.1399 29.5998 70.418C29.8278 70.5568 30.0145 70.6806 30.1564 70.7832C30.1963 70.812 30.2278 70.8394 30.255 70.8604C30.3237 71.0046 30.4139 71.2211 30.5236 71.5264C30.7576 72.1775 30.9865 72.9363 31.2785 73.8418C31.5497 74.6829 31.8728 75.6417 32.2472 76.4551C32.435 76.8631 32.6703 77.3112 32.964 77.7197C33.2356 78.0975 33.7006 78.6463 34.4181 78.9932C35.1637 79.3535 36.1569 79.5357 36.9669 79.6436C37.8718 79.764 38.9149 79.8345 39.9542 79.8447C40.9897 79.8549 42.0794 79.8058 43.0675 79.668C43.945 79.5456 45.0488 79.3142 45.9396 78.7871L45.9455 78.7969C47.0006 78.1415 47.6066 77.1109 47.9669 76.3447C48.3508 75.5286 48.631 74.6224 48.8507 73.8408C49.1086 72.9237 49.2331 72.3809 49.4406 71.6768C49.5296 71.3747 49.6082 71.1391 49.6789 70.959C49.7183 70.8582 49.7469 70.7948 49.7638 70.7607C49.8004 70.7306 49.9593 70.5883 50.3419 70.3594C50.8173 70.075 51.4401 69.7748 52.1261 69.4971C52.8059 69.2219 53.4964 68.9893 54.0841 68.8252C54.3775 68.7433 54.6302 68.6822 54.8312 68.6426C54.8965 68.6297 54.9532 68.6209 55.0011 68.6133C55.1173 68.6549 55.2855 68.7243 55.5148 68.834C56.0651 69.0972 56.6774 69.4431 57.4435 69.8574C58.1449 70.2368 58.9846 70.6781 59.7804 70.9805C60.1822 71.1331 60.6574 71.2835 61.1593 71.3584C61.6413 71.4303 62.3447 71.4635 63.0812 71.1855C63.7275 70.9416 64.5083 70.4775 65.2111 70.0137C65.9652 69.516 66.8094 68.8969 67.6193 68.2295C68.4226 67.5675 69.2392 66.8197 69.9113 66.0615C70.5139 65.3816 71.2719 64.3992 71.5519 63.2793C71.84 62.127 71.6273 60.9885 71.3138 60.0599C70.9905 59.1024 70.4759 58.1235 69.8675 57.1635C68.6488 55.2403 66.8619 53.0949 64.7845 50.9086C60.9816 46.9062 55.9782 42.5264 51.0452 38.7458C51.2671 37.6632 51.24 36.5633 51.1055 35.6016C50.8855 34.0292 50.3387 32.538 49.7529 31.6484C49.5286 31.3078 49.0934 30.8815 48.6982 30.5088C48.2484 30.0846 47.6662 29.5644 47.0068 28.9902C45.6861 27.84 44.0148 26.4378 42.3789 25.084C40.7412 23.7287 39.1312 22.4152 37.9316 21.4414C37.3318 20.9545 36.8342 20.5522 36.4863 20.2715C36.3125 20.1312 36.1761 20.0213 36.083 19.9463L35.9766 19.8604C35.9645 19.8507 35.9554 19.8428 35.9492 19.8379C35.9464 19.8356 35.9424 19.833 35.9424 19.833L35.9395 19.8311C35.2937 19.3121 34.35 19.4148 33.8311 20.0605C33.3121 20.7063 33.4148 21.651 34.0605 22.1699L34.0625 22.1709C34.0625 22.1709 34.0663 22.1744 34.0693 22.1768L34.0957 22.1982C34.1194 22.2173 34.1551 22.2452 34.2012 22.2822C34.2934 22.3565 34.4295 22.4658 34.6025 22.6055C34.9485 22.8847 35.4437 23.2856 36.041 23.7705C37.2361 24.7407 38.8379 26.0474 40.4658 27.3945C42.0955 28.7432 43.7448 30.1265 45.0371 31.252C45.3033 31.4837 45.5515 31.7044 45.7812 31.9092L45.6807 32.043L45.1963 32.6768L32.9111 23.2822C32.2531 22.779 31.3118 22.9044 30.8086 23.5625C30.3054 24.2206 30.4308 25.1618 31.0889 25.665L43.3789 35.0635L42.166 36.6543L29.9111 27.2822C29.2531 26.779 28.3118 26.9044 27.8086 27.5625C27.3054 28.2206 27.4308 29.1618 28.0889 29.665L40.3486 39.04L39.5918 40.0322C39.0647 39.7701 38.4412 39.4188 37.749 38.9971C36.2933 38.11 34.608 36.9611 32.9951 35.8135C31.3859 34.6685 29.8667 33.5374 28.749 32.6914C28.1907 32.2688 27.7332 31.9185 27.416 31.6738C27.2576 31.5516 27.1344 31.4556 27.0508 31.3906C27.0091 31.3582 26.9773 31.3329 26.9561 31.3164C26.9455 31.3081 26.9369 31.3019 26.9316 31.2979C26.9292 31.2959 26.9258 31.2939 26.9258 31.2939L26.9248 31.293C26.2724 30.7824 25.3289 30.8964 24.8184 31.5488C24.3078 32.2012 24.4238 33.1447 25.0762 33.6553L25.0781 33.6572C25.0781 33.6572 25.0822 33.6599 25.085 33.6621C25.0908 33.6667 25.0992 33.6739 25.1104 33.6826C25.1328 33.7001 25.1661 33.7254 25.209 33.7588C25.2953 33.8259 25.4223 33.9241 25.584 34.0488C25.9074 34.2983 26.3719 34.6551 26.9385 35.084C28.0707 35.941 29.6144 37.0905 31.2549 38.2578C32.8918 39.4226 34.6443 40.6186 36.1885 41.5596C36.9596 42.0294 37.6986 42.4476 38.3574 42.7695C38.9852 43.0763 39.654 43.3532 40.2529 43.4531C42.6373 43.8505 45.4986 43.6997 47.8351 42.5849C52.6583 46.2688 57.5286 50.5315 61.1595 54.3529C63.1336 56.4305 64.6732 58.3074 65.6439 59.8392C66.13 60.6064 66.4258 61.2132 66.5765 61.6595C66.7371 62.1352 66.7013 62.0664 66.7013 62.0664C66.7013 62.0664 66.6814 62.1682 66.1701 62.7451C65.7275 63.2444 65.1207 63.8099 64.4396 64.3711C63.7649 64.9271 63.0627 65.4412 62.4572 65.8408C62.1549 66.0403 61.8897 66.2026 61.6749 66.3232C61.6657 66.3285 61.6556 66.3319 61.6466 66.3369C61.6188 66.327 61.5877 66.3188 61.5558 66.3066C61.1077 66.1364 60.5347 65.8443 59.8224 65.459C59.1745 65.1085 58.3708 64.6575 57.672 64.3232C57.3131 64.1516 56.9134 63.9764 56.5089 63.8438C56.1373 63.7218 55.5783 63.5723 54.9552 63.5967C54.2774 63.6232 53.462 63.807 52.7394 64.0088C51.964 64.2253 51.0965 64.5197 50.2501 64.8623C49.4099 65.2024 48.5377 65.6118 47.7746 66.0684C47.1308 66.4535 46.3015 67.0234 45.7287 67.8008L45.6183 67.959C45.1346 68.6846 44.8405 69.6 44.6447 70.2646C44.4561 70.9049 44.2034 71.8962 44.0373 72.4873C43.8329 73.2141 43.6426 73.7915 43.4425 74.2168C43.3723 74.3661 43.3124 74.4638 43.2726 74.5264C43.1318 74.571 42.8498 74.6499 42.3771 74.7158C41.7 74.8103 40.8682 74.8532 40.0031 74.8447C39.142 74.8363 38.305 74.7778 37.6271 74.6875C37.2966 74.6435 37.0539 74.5957 36.8869 74.5596C36.8585 74.5043 36.8242 74.4403 36.7892 74.3643C36.5527 73.8504 36.3081 73.1474 36.0373 72.3076C35.7871 71.5319 35.4997 70.5892 35.2287 69.835C35.0896 69.448 34.9307 69.0404 34.7511 68.6689C34.5938 68.3434 34.3224 67.834 33.8937 67.4053C33.4237 66.9354 32.7742 66.4974 32.1994 66.1475C31.5782 65.7694 30.8616 65.3852 30.1388 65.041C29.4184 64.6979 28.6523 64.3754 27.9337 64.1328C27.2835 63.9133 26.4295 63.6729 25.6261 63.6729C25.0171 63.6729 24.4674 63.8369 24.1076 63.9629C23.7097 64.1022 23.3075 64.283 22.9386 64.4609C22.2329 64.8013 21.3585 65.2795 20.6603 65.6426C19.8907 66.0427 19.2245 66.3639 18.673 66.5596C18.4235 66.6481 18.2615 66.6843 18.172 66.7021C18.0572 66.6336 17.8189 66.4816 17.4533 66.1719C16.913 65.7142 16.299 65.0921 15.6955 64.4023C15.0958 63.717 14.5448 63.0093 14.1261 62.4053C13.9168 62.1034 13.7533 61.8448 13.6369 61.6416C13.6283 61.6266 13.6211 61.6113 13.6134 61.5977C13.6309 61.5298 13.6533 61.4457 13.6857 61.3447C13.8465 60.8444 14.1177 60.2141 14.4611 59.4648C14.7774 58.7747 15.177 57.9384 15.4728 57.2285C15.625 56.8632 15.7768 56.4705 15.8927 56.085C15.9992 55.7308 16.1261 55.222 16.1261 54.6729C16.126 53.4011 15.5835 51.6441 14.9865 50.251C14.6645 49.4998 14.2714 48.7241 13.8214 48.0342C13.3998 47.3877 12.8034 46.6198 12.0128 46.0928C11.3872 45.6757 10.6059 45.3524 9.97964 45.1084C9.65084 44.9803 9.30442 44.8519 8.9737 44.7292L8.94546 44.7188C8.59896 44.5903 8.26421 44.466 7.93569 44.3379C7.26619 44.0769 6.70895 43.833 6.28042 43.5898C5.9518 43.4033 5.80725 43.2788 5.76186 43.2363C5.74751 43.1904 5.65642 42.9508 5.58608 42.4014C5.50551 41.7718 5.48255 40.9853 5.51284 40.1494C5.54287 39.3208 5.62326 38.5029 5.72768 37.8281C5.77981 37.4914 5.83513 37.2081 5.88784 36.9883V36.9863C5.92915 36.9637 5.97622 36.9368 6.03139 36.9092C6.48892 36.6804 7.12395 36.4405 7.91128 36.1641C8.63292 35.9106 9.52496 35.6128 10.255 35.3193C10.6296 35.1688 11.0297 34.9931 11.3996 34.79C11.7367 34.6049 12.2228 34.3052 12.6281 33.8506C13.0904 33.3319 13.5092 32.6219 13.8419 31.9805C14.1989 31.2923 14.5513 30.497 14.8498 29.6924C15.1455 28.895 15.4112 28.0281 15.5656 27.2061C15.6995 26.493 15.8365 25.3981 15.4982 24.3828C15.3363 23.897 15.0603 23.2455 14.8146 22.6572C14.5482 22.0194 14.2664 21.3377 14.0138 20.6514C13.759 19.9589 13.5582 19.3242 13.4435 18.7891C13.3432 18.3212 13.344 18.0792 13.3468 18.0049C13.3766 17.9531 13.4955 17.7265 13.84 17.3135C14.2609 16.8089 14.8446 16.2337 15.504 15.6621C16.1571 15.0961 16.8385 14.5735 17.4269 14.1689C17.7207 13.967 17.9764 13.8032 18.1828 13.6836C18.2092 13.693 18.2386 13.7015 18.2687 13.7129C18.7168 13.8832 19.2898 14.1753 20.0021 14.5605C20.6499 14.9109 21.4528 15.3611 22.1515 15.6953C22.5106 15.8671 22.911 16.0421 23.3156 16.1748C23.6872 16.2967 24.2462 16.4462 24.8693 16.4219C25.547 16.3954 26.3626 16.2115 27.0851 16.0098C27.8605 15.7933 28.7281 15.4988 29.5744 15.1562C30.4145 14.8162 31.2869 14.4077 32.0499 13.9512C32.7367 13.5403 33.6336 12.9184 34.2062 12.0596C34.6842 11.3425 34.9735 10.4606 35.1662 9.81445C35.346 9.21143 35.5961 8.24098 35.7492 7.70312C35.9435 7.02044 36.1232 6.49042 36.3107 6.10254C36.3945 5.92929 36.458 5.83067 36.4933 5.78125C36.5988 5.74567 36.8738 5.66377 37.3888 5.59766C38.0399 5.51411 38.8418 5.48503 39.6808 5.50781C40.515 5.53047 41.3288 5.60284 41.9914 5.70312C42.3593 5.75882 42.6216 5.81366 42.7921 5.85547C42.8288 5.91758 42.8735 5.99503 42.923 6.09082C43.1713 6.57197 43.4351 7.22936 43.7287 8.0166C43.9986 8.74049 44.3144 9.63255 44.6027 10.3418C44.7514 10.7078 44.9183 11.0917 45.1027 11.4424C45.2677 11.7562 45.5348 12.2192 45.9298 12.6143C46.4571 13.1415 47.2031 13.5865 47.8058 13.9111C48.4776 14.2729 49.2538 14.6315 50.0265 14.9482C50.7993 15.265 51.6094 15.556 52.3527 15.7725C53.0289 15.9694 53.8746 16.1728 54.6261 16.1729C55.2143 16.1729 55.7497 16.0224 56.1076 15.9033C56.501 15.7724 56.9007 15.6031 57.2687 15.4346C57.9708 15.113 58.8466 14.6584 59.5431 14.3154C60.3115 13.9371 60.9788 13.6333 61.5324 13.4492C61.796 13.3615 61.9646 13.3265 62.0558 13.3105C62.1566 13.3747 62.3617 13.5153 62.674 13.7969C63.1667 14.2411 63.7244 14.8513 64.2755 15.5371C64.8216 16.2166 65.3238 16.9222 65.7091 17.5293C65.9016 17.8325 66.0557 18.0961 66.1681 18.3076C66.1863 18.3418 66.2004 18.3747 66.215 18.4033C66.1971 18.4743 66.1733 18.5645 66.1378 18.6748C65.977 19.1751 65.7058 19.8055 65.3624 20.5547C65.0462 21.2448 64.6475 22.0812 64.3517 22.791C64.1995 23.1564 64.0477 23.549 63.9318 23.9346C63.8253 24.2887 63.6984 24.7967 63.6984 25.3457C63.6984 26.6175 64.2409 28.3753 64.838 29.7686C65.16 30.5197 65.5522 31.2955 66.0021 31.9854C66.4237 32.6318 67.0211 33.3987 67.8117 33.9258C68.4374 34.343 69.2185 34.6671 69.8449 34.9111C70.1738 35.0393 70.5203 35.1678 70.8511 35.2904L70.8791 35.3008C71.2255 35.4292 71.5604 35.5536 71.8888 35.6816C72.558 35.9425 73.1147 36.1857 73.5431 36.4287C73.8713 36.6149 74.0159 36.7404 74.0617 36.7832C74.076 36.8292 74.1671 37.0687 74.2374 37.6182C74.318 38.2478 74.342 39.0342 74.3117 39.8701C74.2816 40.6986 74.2012 41.5158 74.0968 42.1904C74.0447 42.5274 73.9894 42.8113 73.9367 43.0312C73.9318 43.0516 73.9256 43.0706 73.921 43.0889C73.8269 43.1535 73.6996 43.2367 73.5324 43.332C72.9778 43.6481 72.228 43.9909 71.423 44.3193C70.6316 44.6422 69.8496 44.9255 69.2609 45.1299C68.9681 45.2315 68.7264 45.3124 68.5597 45.3672C68.4767 45.3945 68.4127 45.416 68.3703 45.4297C68.3493 45.4364 68.3333 45.4412 68.3234 45.4443C68.3186 45.4459 68.3146 45.4466 68.3126 45.4473L68.3107 45.4482C68.3107 45.4482 68.3112 45.4481 69.0626 47.832C69.8142 50.2164 69.8156 50.2168 69.8156 50.2168L69.8175 50.2158C69.8175 50.2158 69.8204 50.2145 69.8224 50.2139C69.8266 50.2125 69.8327 50.2113 69.84 50.209C69.8545 50.2044 69.8754 50.1978 69.9015 50.1895C69.9537 50.1726 70.0282 50.1481 70.1222 50.1172C70.3109 50.0551 70.5787 49.9652 70.9005 49.8535C71.5412 49.6311 72.4118 49.3154 73.3117 48.9482C74.1976 48.5868 75.178 48.1494 76.0089 47.6758C76.4224 47.4401 76.8591 47.1617 77.2462 46.8428C77.5871 46.562 78.1228 46.0634 78.4367 45.334C78.7251 44.6636 78.913 43.7643 79.0382 42.9551C79.1736 42.08 79.2709 41.0674 79.3078 40.0508C79.3443 39.0414 79.3232 37.9665 79.1974 36.9834C79.0832 36.0913 78.8436 34.9145 78.2072 33.9795C77.5987 33.0857 76.7233 32.4843 76.0109 32.0801C75.2635 31.656 74.4387 31.3084 73.7052 31.0225C73.3495 30.8838 72.9942 30.7521 72.665 30.63L72.6154 30.6116C72.2664 30.4822 71.9521 30.3656 71.6603 30.252C71.0258 30.0048 70.7093 29.8484 70.5851 29.7656C70.6256 29.7926 70.472 29.6854 70.1906 29.2539C69.9374 28.8658 69.6743 28.3601 69.4337 27.7988C69.1949 27.2416 68.999 26.679 68.8673 26.1963C68.8018 25.9558 68.7565 25.7511 68.7287 25.5898C68.716 25.5166 68.7116 25.4605 68.7072 25.4209C68.7109 25.4075 68.7147 25.3922 68.7199 25.375C68.766 25.2216 68.8457 25.0047 68.9669 24.7139C69.218 24.1113 69.5372 23.4475 69.9083 22.6377C70.2524 21.8871 70.6375 21.0172 70.8986 20.2051C71.03 19.7961 71.1533 19.3301 71.214 18.8516C71.2713 18.3999 71.2988 17.7438 71.0695 17.0557C70.8414 16.3713 70.3802 15.5592 69.9298 14.8496C69.4424 14.0818 68.8322 13.2255 68.173 12.4053C67.5188 11.5912 66.7776 10.7637 66.0226 10.083C65.3889 9.51168 64.4848 8.79924 63.4425 8.47949L63.2326 8.4209L63.0011 8.37012C61.8465 8.15301 60.7086 8.45324 59.9542 8.7041C59.0548 9.00323 58.1282 9.43813 57.3341 9.8291C56.4683 10.2554 55.8126 10.6011 55.1867 10.8877C54.8934 11.022 54.6807 11.1079 54.5333 11.1572C54.4081 11.1366 54.1534 11.0889 53.7511 10.9717C53.211 10.8144 52.5697 10.5863 51.923 10.3213C51.2762 10.0562 50.6636 9.77086 50.1769 9.50879C49.8294 9.32165 49.628 9.18903 49.5324 9.12305L49.5285 9.11523C49.4532 8.97204 49.3561 8.75808 49.2345 8.45898C48.9818 7.83728 48.7332 7.12765 48.4132 6.26953C48.1169 5.47478 47.7639 4.56885 47.3654 3.79688C47.1651 3.40892 46.9198 2.9862 46.6203 2.60156C46.3398 2.24137 45.8835 1.74544 45.214 1.42188L45.2101 1.41992L44.9308 1.29785C44.2573 1.02786 43.4413 0.866002 42.7394 0.759766Z" fill="black"/>
<path id="knife" d="M52.122 44.9932C50.8259 44.9932 49.0184 45.0047 48.3537 45.0996C47.7404 45.1872 47.0664 45.3663 45.9289 45.8213L44.7824 46.2793L43.7218 45.6484L43.7192 45.6469L43.7179 45.6465L43.7101 45.6416L43.6857 45.627C43.6647 45.6143 43.6343 45.5965 43.5958 45.5732C43.519 45.5267 43.4082 45.4588 43.2677 45.3721C42.9866 45.1985 42.5855 44.9474 42.0968 44.6318C41.1211 44.0017 39.7867 43.1082 38.3546 42.0576C35.603 40.039 32.0917 37.1572 30.3605 34.293C28.7821 31.6815 28.3469 28.9706 28.2853 26.9795C28.2543 25.9753 28.3174 25.1236 28.3898 24.5127C28.4261 24.2065 28.4653 23.9578 28.4972 23.7773C28.5132 23.687 28.527 23.613 28.5382 23.5576C28.5438 23.5299 28.5489 23.5068 28.5529 23.4883C28.5549 23.479 28.5562 23.4708 28.5578 23.4639C28.5578 23.4635 28.5579 23.4632 28.558 23.4629L28.5617 23.4482L29.5197 19.2256L58 44.5C60.6151 47 65.9917 50.1901 71.3773 60.4301C71.5907 61.1603 71.805 62.1982 71.5363 63.4349C71.2563 64.5548 70.4981 65.5369 69.8955 66.2168C69.2234 66.975 68.4068 67.7228 67.6035 68.3848C66.7936 69.0522 65.9494 69.6713 65.1953 70.1689C64.4925 70.6328 63.7117 71.0969 63.0654 71.3408C62.3289 71.6188 61.6256 71.5855 61.1436 71.5137C60.6416 71.4388 60.1665 71.2884 59.7647 71.1357C58.9688 70.8334 58.1292 70.3921 57.4277 70.0127C56.6616 69.5983 56.0493 69.2525 55.499 68.9893C55.2697 68.8796 55.1015 68.8102 54.9854 68.7686C54.9374 68.7762 54.8807 68.785 54.8154 68.7979C54.6144 68.8375 54.3617 68.8986 54.0684 68.9805C53.4806 69.1446 52.7902 69.3771 52.1104 69.6523C51.4243 69.9301 50.8016 70.2302 50.3262 70.5146C49.9435 70.7436 49.7846 70.8859 49.748 70.916C49.7311 70.9501 49.7026 71.0135 49.6631 71.1143C49.5925 71.2944 49.5138 71.53 49.4248 71.832C49.2174 72.5362 49.0928 73.079 48.835 73.9961C48.6152 74.7777 48.335 75.6838 47.9512 76.5C47.5908 77.2661 46.9848 78.2968 45.9297 78.9521L45.9238 78.9424C45.0331 79.4694 43.9292 79.7009 43.0518 79.8232C42.0637 79.961 40.974 80.0102 39.9385 80C38.8991 79.9898 37.856 79.9193 36.9512 79.7988C36.1411 79.6909 35.1479 79.5088 34.4023 79.1484C33.6848 78.8016 33.2199 78.2527 32.9482 77.875C32.6546 77.4665 32.4193 77.0184 32.2314 76.6104C31.857 75.797 31.5339 74.8382 31.2627 73.9971C30.9707 73.0916 30.7418 72.3327 30.5078 71.6816C30.3981 71.3764 30.308 71.1599 30.2393 71.0156C30.2121 70.9946 30.1805 70.9673 30.1406 70.9385C29.9987 70.8359 29.812 70.7121 29.584 70.5732C29.1272 70.2952 28.5631 69.9916 27.9736 69.7109C27.3816 69.429 26.8029 69.189 26.3184 69.0254C26.0196 68.9245 25.8216 68.8746 25.7109 68.8506C25.5691 68.9025 25.3674 68.9876 25.0947 69.1191C24.4724 69.4193 23.8153 69.785 22.9512 70.2344C22.1583 70.6467 21.2306 71.1069 20.3291 71.4268C19.5281 71.711 18.2659 72.0694 17.0039 71.7539C15.9082 71.4799 14.9105 70.7393 14.2061 70.1426C13.4183 69.4753 12.6258 68.6597 11.917 67.8496C11.2041 67.0349 10.5354 66.1802 10.001 65.4092C9.51845 64.7131 8.9875 63.8637 8.73926 63.1191C8.50981 62.4308 8.53745 61.774 8.59473 61.3223C8.65542 60.8439 8.77874 60.3786 8.91016 59.9697C9.17118 59.1576 9.55635 58.2878 9.90039 57.5371C10.2715 56.7274 10.5908 56.0634 10.8418 55.4609C10.963 55.1701 11.0427 54.9532 11.0889 54.7998C11.0941 54.7824 11.0968 54.7664 11.1006 54.7529C11.0961 54.7133 11.0917 54.657 11.0791 54.584C11.0513 54.4228 11.006 54.2188 10.9404 53.9785C10.8088 53.4958 10.6138 52.9331 10.375 52.376C10.1345 51.8148 9.87129 51.3091 9.61816 50.9209C9.3373 50.4902 9.18399 50.3818 9.22363 50.4082C9.09923 50.3254 8.78255 50.1699 8.14844 49.9229C7.85715 49.8094 7.54345 49.693 7.19509 49.5639L7.19141 49.5625C6.84888 49.4355 6.47647 49.2968 6.10352 49.1514C5.37006 48.8654 4.54525 48.5178 3.79785 48.0938C3.0855 47.6896 2.20997 47.089 1.60156 46.1953C0.965147 45.2604 0.725527 44.0835 0.611328 43.1914C0.485495 42.2082 0.463416 41.1325 0.5 40.123C0.53686 39.1064 0.635092 38.0938 0.770508 37.2188C0.89576 36.4095 1.08363 35.5101 1.37207 34.8398C1.68124 34.1217 2.18961 33.6383 2.56348 33.3438C2.95793 33.033 3.3904 32.7873 3.7793 32.5928C4.55132 32.2067 5.45925 31.8751 6.23828 31.6016C7.08302 31.3049 7.7812 31.0732 8.37402 30.835C8.64139 30.7275 8.82832 30.6406 8.95117 30.5752C8.97486 30.5409 9.00751 30.4989 9.04199 30.4443C9.14155 30.2869 9.2592 30.0816 9.3877 29.834C9.64571 29.3366 9.91612 28.7295 10.1465 28.1084C10.3796 27.48 10.5496 26.8971 10.6357 26.4385C10.6816 26.1945 10.6897 26.052 10.6924 25.9902C10.5938 25.7208 10.4278 25.3195 10.1855 24.7393C9.92159 24.1071 9.60006 23.3333 9.30566 22.5332C9.01365 21.7396 8.72425 20.8562 8.53906 19.9922C8.36466 19.1784 8.2241 18.1292 8.43652 17.1123L8.48633 16.9004C8.76472 15.8474 9.43902 14.9194 9.98438 14.2656C10.6331 13.4879 11.4283 12.7202 12.2129 12.04C13.0037 11.3545 13.8326 10.7168 14.5781 10.2041C15.2682 9.72958 16.0565 9.24251 16.7275 8.98926C17.4642 8.7113 18.1674 8.74452 18.6494 8.81641C19.1513 8.89126 19.6265 9.04171 20.0283 9.19434C20.8242 9.49669 21.6638 9.938 22.3652 10.3174C23.1313 10.7317 23.7437 11.0776 24.2939 11.3408C24.5223 11.45 24.6905 11.5179 24.8066 11.5596C24.8547 11.5519 24.9119 11.5442 24.9775 11.5312C25.1785 11.4916 25.4312 11.4315 25.7246 11.3496C26.3123 11.1855 27.0019 10.9519 27.6816 10.6768C28.3678 10.399 28.9913 10.0999 29.4668 9.81543C29.8568 9.58209 30.0133 9.43741 30.0459 9.41113C30.0629 9.37764 30.0927 9.31622 30.1318 9.21777C30.1995 9.04752 30.2743 8.82522 30.3594 8.54004C30.5621 7.86016 30.6719 7.37772 30.9248 6.48926C31.1365 5.74547 31.4101 4.87416 31.793 4.08203C32.1592 3.32443 32.7619 2.34447 33.791 1.70508C34.7036 1.13826 35.8433 0.908667 36.7373 0.793945C37.7152 0.668474 38.7869 0.63751 39.8008 0.665039C40.8195 0.692702 41.8388 0.781124 42.7236 0.915039C43.4255 1.02128 44.2416 1.18314 44.915 1.45313L45.1943 1.5752L45.1982 1.57715C45.8677 1.90072 46.324 2.39664 46.6045 2.75684C46.904 3.14148 47.1493 3.56419 47.3496 3.95215C47.7481 4.72412 48.1011 5.63005 48.3975 6.4248C48.7175 7.28293 48.9661 7.99256 49.2188 8.61426C49.3403 8.91335 49.4374 9.12731 49.5127 9.27051L49.5166 9.27832C49.6122 9.3443 49.8136 9.47692 50.1611 9.66406C50.6478 9.92613 51.2604 10.2115 51.9072 10.4766C52.5539 10.7416 53.1953 10.9696 53.7354 11.127C54.1377 11.2441 54.3923 11.2919 54.5176 11.3125C54.6649 11.2632 54.8776 11.1773 55.1709 11.043C55.7968 10.7563 56.4525 10.4107 57.3184 9.98438C58.1125 9.5934 59.039 9.15851 59.9385 8.85938C60.6929 8.60851 61.8307 8.30829 62.9854 8.52539L63.2168 8.57617L63.4268 8.63477C64.4691 8.95451 65.3731 9.66695 66.0068 10.2383C66.7618 10.919 67.503 11.7465 68.1572 12.5605C68.8164 13.3808 69.4267 14.2371 69.9141 15.0049C70.3645 15.7144 70.8256 16.5266 71.0537 17.2109C71.2831 17.899 71.2555 18.5552 71.1982 19.0068C71.1376 19.4854 71.0143 19.9514 70.8828 20.3604C70.6218 21.1724 70.2366 22.0423 69.8926 22.793C69.5214 23.6028 69.2022 24.2666 68.9512 24.8691C68.83 25.16 68.7502 25.3769 68.7041 25.5303C68.6989 25.5474 68.6951 25.5628 68.6914 25.5762C68.6958 25.6157 68.7003 25.6718 68.7129 25.7451C68.7407 25.9063 68.786 26.1111 68.8516 26.3516C68.9832 26.8343 69.1792 27.3969 69.418 27.9541C69.6585 28.5153 69.9217 29.021 70.1748 29.4092C70.4562 29.8406 70.6098 29.9479 70.5693 29.9209C70.6936 30.0037 71.01 30.16 71.6445 30.4072C71.9363 30.5209 72.2506 30.6374 72.5997 30.7669L72.6496 30.7854L72.6497 30.7854C72.9788 30.9074 73.3339 31.0391 73.6895 31.1777C74.4229 31.4637 75.2477 31.8113 75.9951 32.2354C76.7075 32.6396 77.583 33.241 78.1914 34.1348C78.8278 35.0698 79.0675 36.2466 79.1816 37.1387C79.3075 38.1218 79.3286 39.1967 79.292 40.2061C79.2552 41.2227 79.1579 42.2353 79.0225 43.1104C78.8972 43.9196 78.7094 44.8189 78.4209 45.4893C78.107 46.2187 77.5714 46.7172 77.2305 46.998C76.8433 47.3169 76.4067 47.5953 75.9932 47.8311C75.1622 48.3047 74.1818 48.7421 73.2959 49.1035C72.396 49.4707 71.5254 49.7864 70.8848 50.0088C70.5629 50.1205 70.2951 50.2104 70.1064 50.2725C70.0125 50.3034 69.938 50.3279 69.8857 50.3447C69.8597 50.3531 69.8388 50.3596 69.8242 50.3643C69.817 50.3666 69.8109 50.3678 69.8066 50.3691C69.8047 50.3698 69.8018 50.3711 69.8018 50.3711L69.7998 50.3721C69.7998 50.3721 69.7985 50.3717 69.0469 47.9873C68.2954 45.6033 68.2949 45.6035 68.2949 45.6035L68.2969 45.6025C68.2989 45.6019 68.3028 45.6011 68.3076 45.5996C68.3175 45.5965 68.3335 45.5917 68.3545 45.585C68.397 45.5713 68.4609 45.5498 68.5439 45.5225C68.7106 45.4676 68.9523 45.3868 69.2451 45.2852C69.8339 45.0808 70.6158 44.7975 71.4072 44.4746C72.2122 44.1462 72.962 43.8034 73.5166 43.4873C73.6839 43.392 73.8111 43.3088 73.9053 43.2441C73.9099 43.2259 73.916 43.2069 73.9209 43.1865C73.9736 42.9666 74.0289 42.6827 74.0811 42.3457C74.1855 41.6711 74.2659 40.8539 74.2959 40.0254C74.3262 39.1895 74.3023 38.403 74.2217 37.7734C74.1513 37.2239 74.0603 36.9844 74.0459 36.9385C74.0001 36.8957 73.8556 36.7702 73.5273 36.584C73.0989 36.3409 72.5422 36.0978 71.873 35.8369C71.5446 35.7089 71.2097 35.5845 70.8633 35.4561L70.8354 35.4457C70.5045 35.323 70.158 35.1945 69.8291 35.0664C69.2027 34.8224 68.4217 34.4982 67.7959 34.0811C67.0053 33.554 66.4079 32.7871 65.9863 32.1406C65.5364 31.4508 65.1442 30.6749 64.8223 29.9238C64.2252 28.5306 63.6826 26.7728 63.6826 25.501C63.6827 24.952 63.8095 24.444 63.916 24.0898C64.032 23.7042 64.1837 23.3116 64.3359 22.9463C64.6317 22.2365 65.0304 21.4001 65.3467 20.71C65.6901 19.9607 65.9612 19.3304 66.1221 18.8301C66.1575 18.7198 66.1814 18.6295 66.1992 18.5586C66.1846 18.53 66.1705 18.4971 66.1523 18.4629C66.04 18.2514 65.8858 17.9877 65.6934 17.6846C65.308 17.0775 64.8058 16.3719 64.2598 15.6924C63.7086 15.0066 63.1509 14.3964 62.6582 13.9521C62.3459 13.6706 62.1408 13.5299 62.04 13.4658C61.9488 13.4818 61.7803 13.5168 61.5166 13.6045C60.963 13.7886 60.2957 14.0924 59.5273 14.4707C58.8308 14.8136 57.955 15.2683 57.2529 15.5898C56.885 15.7583 56.4853 15.9277 56.0918 16.0586C55.7339 16.1776 55.1985 16.3281 54.6104 16.3281C53.8588 16.3281 53.0132 16.1247 52.3369 15.9277C51.5936 15.7112 50.7835 15.4202 50.0107 15.1035C49.238 14.7868 48.4618 14.4282 47.79 14.0664C47.1873 13.7418 46.4413 13.2968 45.9141 12.7695C45.5191 12.3745 45.2519 11.9114 45.0869 11.5977C44.9026 11.247 44.7357 10.8631 44.5869 10.4971C44.2987 9.78782 43.9828 8.89577 43.7129 8.17188C43.4193 7.38463 43.1556 6.72725 42.9072 6.24609C42.8578 6.1503 42.8131 6.07285 42.7764 6.01074C42.6059 5.96893 42.3435 5.91409 41.9756 5.8584C41.313 5.75812 40.4993 5.68574 39.665 5.66309C38.826 5.6403 38.0241 5.66939 37.373 5.75293C36.858 5.81905 36.583 5.90095 36.4775 5.93652C36.4423 5.98594 36.3787 6.08456 36.2949 6.25781C36.1074 6.64569 35.9277 7.17571 35.7334 7.8584C35.5803 8.39625 35.3302 9.3667 35.1504 9.96973C34.9577 10.6158 34.6685 11.4977 34.1904 12.2148C33.6179 13.0737 32.7209 13.6956 32.0342 14.1064C31.2712 14.5629 30.3987 14.9714 29.5586 15.3115C28.7124 15.6541 27.8447 15.9485 27.0693 16.165C26.3468 16.3668 25.5313 16.5506 24.8535 16.5771C24.2304 16.6015 23.6715 16.452 23.2998 16.3301C22.8952 16.1973 22.4948 16.0223 22.1357 15.8506C21.437 15.5163 20.6341 15.0662 19.9863 14.7158C19.274 14.3306 18.7011 14.0384 18.2529 13.8682C18.2228 13.8567 18.1935 13.8483 18.167 13.8389C17.9606 13.9585 17.7049 14.1222 17.4111 14.3242C16.8228 14.7288 16.1413 15.2513 15.4883 15.8174C14.8288 16.389 14.2451 16.9642 13.8242 17.4688C13.4797 17.8817 13.3608 18.1084 13.3311 18.1602C13.3282 18.2345 13.3275 18.4765 13.4277 18.9443C13.5424 19.4795 13.7433 20.1142 13.998 20.8066C14.2506 21.493 14.5325 22.1747 14.7988 22.8125C15.0445 23.4008 15.3205 24.0523 15.4824 24.5381C15.8208 25.5533 15.6837 26.6483 15.5498 27.3613C15.3954 28.1833 15.1297 29.0503 14.834 29.8477C14.5355 30.6523 14.1831 31.4476 13.8262 32.1357C13.4934 32.7772 13.0747 33.4872 12.6123 34.0059C12.207 34.4605 11.721 34.7602 11.3838 34.9453C11.0139 35.1484 10.6138 35.3241 10.2393 35.4746C9.50919 35.768 8.61716 36.0659 7.89551 36.3193C7.10818 36.5958 6.47315 36.8357 6.01563 37.0645C5.96045 37.092 5.91338 37.119 5.87207 37.1416V37.1436C5.81936 37.3634 5.76404 37.6467 5.71191 37.9834C5.6075 38.6581 5.5271 39.4761 5.49707 40.3047C5.46678 41.1406 5.48974 41.9271 5.57031 42.5566C5.64065 43.106 5.73174 43.3457 5.74609 43.3916C5.79149 43.4341 5.93603 43.5586 6.26465 43.7451C6.69318 43.9883 7.25042 44.2321 7.91992 44.4932C8.24844 44.6212 8.58319 44.7455 8.92969 44.874L8.95793 44.8845C9.28865 45.0071 9.63508 45.1356 9.96387 45.2637C10.5902 45.5077 11.3714 45.831 11.9971 46.248C12.7876 46.7751 13.3841 47.543 13.8057 48.1895C14.2556 48.8794 14.6488 49.6551 14.9707 50.4062C15.5678 51.7994 16.1102 53.5564 16.1104 54.8281C16.1104 55.3773 15.9835 55.886 15.877 56.2402C15.761 56.6258 15.6092 57.0185 15.457 57.3838C15.1612 58.0937 14.7616 58.93 14.4453 59.6201C14.1019 60.3694 13.8307 60.9997 13.6699 61.5C13.6375 61.6009 13.6152 61.6851 13.5977 61.7529C13.6053 61.7666 13.6125 61.7819 13.6211 61.7969C13.7376 62.0001 13.9011 62.2586 14.1104 62.5605C14.529 63.1646 15.0801 63.8723 15.6797 64.5576C16.2833 65.2474 16.8972 65.8695 17.4375 66.3271C17.8031 66.6368 18.0414 66.7889 18.1562 66.8574C18.2457 66.8396 18.4077 66.8034 18.6572 66.7148C19.2087 66.5191 19.875 66.198 20.6445 65.7979C21.3427 65.4348 22.2172 64.9566 22.9229 64.6162C23.2918 64.4383 23.6939 64.2575 24.0918 64.1182C24.4516 63.9922 25.0014 63.8282 25.6104 63.8281C26.4138 63.8281 27.2678 64.0685 27.918 64.2881C28.6365 64.5307 29.4026 64.8532 30.123 65.1963C30.8458 65.5405 31.5624 65.9246 32.1836 66.3027C32.7584 66.6526 33.4079 67.0906 33.8779 67.5605C34.3066 67.9893 34.578 68.4987 34.7354 68.8242C34.9149 69.1957 35.0738 69.6033 35.2129 69.9902C35.484 70.7445 35.7714 71.6872 36.0215 72.4629C36.2923 73.3027 36.5369 74.0056 36.7734 74.5195C36.8085 74.5956 36.8428 74.6596 36.8711 74.7148C37.0381 74.7509 37.2808 74.7988 37.6113 74.8428C38.2892 74.933 39.1262 74.9915 39.9873 75C40.8525 75.0085 41.6842 74.9655 42.3613 74.8711C42.834 74.8052 43.116 74.7263 43.2568 74.6816C43.2966 74.619 43.3565 74.5214 43.4268 74.3721C43.6268 73.9468 43.8172 73.3693 44.0215 72.6426C44.1877 72.0514 44.4403 71.0601 44.6289 70.4199C44.8247 69.7553 45.1188 68.8399 45.6025 68.1143L45.7129 67.9561C46.2858 67.1786 47.115 66.6088 47.7588 66.2236C48.5219 65.7671 49.3942 65.3577 50.2344 65.0176C51.0807 64.675 51.9482 64.3806 52.7236 64.1641C53.4462 63.9623 54.2617 63.7785 54.9395 63.752C55.5625 63.7276 56.1215 63.8771 56.4932 63.999C56.8976 64.1317 57.2973 64.3068 57.6563 64.4785C58.3551 64.8128 59.1587 65.2638 59.8066 65.6143C60.519 65.9995 61.0919 66.2917 61.54 66.4619C61.572 66.474 61.603 66.4823 61.6309 66.4922C61.6398 66.4872 61.6499 66.4837 61.6592 66.4785C61.8739 66.3578 62.1391 66.1956 62.4414 65.9961C63.0469 65.5965 63.7491 65.0824 64.4238 64.5264C65.1049 63.9651 65.7117 63.3997 66.1543 62.9004C66.6657 62.3235 66.7054 62.0677 66.7054 62.0677C66.7054 62.0677 66.6995 61.9031 66.6693 61.7885C63.5921 54.7756 56.4932 49.1035 52.122 44.9932Z" fill="black"/>
</g>
</svg>
